%TF.GenerationSoftware,KiCad,Pcbnew,7.0.5*%
%TF.CreationDate,2023-07-28T19:17:22-07:00*%
%TF.ProjectId,BrookHitbox,42726f6f-6b48-4697-9462-6f782e6b6963,rev?*%
%TF.SameCoordinates,Original*%
%TF.FileFunction,Copper,L2,Bot*%
%TF.FilePolarity,Positive*%
%FSLAX46Y46*%
G04 Gerber Fmt 4.6, Leading zero omitted, Abs format (unit mm)*
G04 Created by KiCad (PCBNEW 7.0.5) date 2023-07-28 19:17:22*
%MOMM*%
%LPD*%
G01*
G04 APERTURE LIST*
%TA.AperFunction,ComponentPad*%
%ADD10C,2.200000*%
%TD*%
%TA.AperFunction,SMDPad,CuDef*%
%ADD11R,1.500000X1.000000*%
%TD*%
%TA.AperFunction,ViaPad*%
%ADD12C,0.700000*%
%TD*%
%TA.AperFunction,Conductor*%
%ADD13C,0.300000*%
%TD*%
G04 APERTURE END LIST*
D10*
%TO.P,SW_TRIANGLE1,1,PIN1*%
%TO.N,/TRI*%
X308780000Y-81941000D03*
%TO.P,SW_TRIANGLE1,2,PIN2*%
%TO.N,GND*%
X302430000Y-84481000D03*
%TD*%
%TO.P,SW_PSXBOX1,1,PIN1*%
%TO.N,/PS*%
X252560000Y-204841000D03*
%TO.P,SW_PSXBOX1,2,PIN2*%
%TO.N,GND*%
X246210000Y-207381000D03*
%TD*%
%TO.P,SW_SELECT1,1,PIN1*%
%TO.N,/SEL*%
X252560000Y-173656000D03*
%TO.P,SW_SELECT1,2,PIN2*%
%TO.N,GND*%
X246210000Y-176196000D03*
%TD*%
%TO.P,SW_SQUARE1,1,PIN1*%
%TO.N,/SQU*%
X282262000Y-93937000D03*
%TO.P,SW_SQUARE1,2,PIN2*%
%TO.N,GND*%
X275912000Y-96477000D03*
%TD*%
%TO.P,SW_R1,1,PIN1*%
%TO.N,/R1*%
X337135000Y-84916000D03*
%TO.P,SW_R1,2,PIN2*%
%TO.N,GND*%
X330785000Y-87456000D03*
%TD*%
%TO.P,SW_CIRCLE1,1,PIN1*%
%TO.N,/CIR*%
X308780000Y-109551000D03*
%TO.P,SW_CIRCLE1,2,PIN2*%
%TO.N,GND*%
X302430000Y-112091000D03*
%TD*%
%TO.P,SW_DOWN1,1,PIN1*%
%TO.N,/DWN*%
X96896000Y-110157000D03*
%TO.P,SW_DOWN1,2,PIN2*%
%TO.N,GND*%
X90546000Y-112697000D03*
%TD*%
%TO.P,SW_L2,1,PIN1*%
%TO.N,/L2*%
X363358000Y-128562000D03*
%TO.P,SW_L2,2,PIN2*%
%TO.N,GND*%
X357008000Y-131102000D03*
%TD*%
%TO.P,SW_RIGHT1,1,PIN1*%
%TO.N,/RT*%
X123468000Y-121920000D03*
%TO.P,SW_RIGHT1,2,PIN2*%
%TO.N,GND*%
X117118000Y-124460000D03*
%TD*%
%TO.P,SW_LEFT1,1,PIN1*%
%TO.N,/LFT*%
X68540000Y-112883000D03*
%TO.P,SW_LEFT1,2,PIN2*%
%TO.N,GND*%
X62190000Y-115423000D03*
%TD*%
%TO.P,SW_START1,1,PIN1*%
%TO.N,/STA*%
X203200000Y-121920000D03*
%TO.P,SW_START1,2,PIN2*%
%TO.N,GND*%
X196850000Y-124460000D03*
%TD*%
%TO.P,SW_R2,1,PIN1*%
%TO.N,/R2*%
X337135000Y-112526000D03*
%TO.P,SW_R2,2,PIN2*%
%TO.N,GND*%
X330785000Y-115066000D03*
%TD*%
%TO.P,SW_X1,1,PIN1*%
%TO.N,/X*%
X282262000Y-121546000D03*
%TO.P,SW_X1,2,PIN2*%
%TO.N,GND*%
X275912000Y-124086000D03*
%TD*%
D11*
%TO.P,BrookConnection1,1,DOWN*%
%TO.N,/DWN*%
X248920000Y-106800000D03*
%TO.P,BrookConnection1,2,UP*%
%TO.N,/UP*%
X248920000Y-108300000D03*
%TO.P,BrookConnection1,3,LEFT*%
%TO.N,/LFT*%
X248920000Y-109800000D03*
%TO.P,BrookConnection1,4,RIGHT*%
%TO.N,/RT*%
X248920000Y-111300000D03*
%TO.P,BrookConnection1,5,PS/XBOX*%
%TO.N,/PS*%
X248920000Y-112800000D03*
%TO.P,BrookConnection1,6,SELECT*%
%TO.N,/SEL*%
X248920000Y-114300000D03*
%TO.P,BrookConnection1,7,START*%
%TO.N,/STA*%
X248920000Y-115800000D03*
%TO.P,BrookConnection1,8,1P*%
%TO.N,/SQU*%
X248920000Y-117300000D03*
%TO.P,BrookConnection1,9,2P*%
%TO.N,/TRI*%
X248920000Y-118800000D03*
%TO.P,BrookConnection1,10,3P*%
%TO.N,/R1*%
X248920000Y-120300000D03*
%TO.P,BrookConnection1,11,4P*%
%TO.N,/L1*%
X248920000Y-121800000D03*
%TO.P,BrookConnection1,12,1K*%
%TO.N,/X*%
X248920000Y-123300000D03*
%TO.P,BrookConnection1,13,2K*%
%TO.N,/CIR*%
X248920000Y-124800000D03*
%TO.P,BrookConnection1,14,3K*%
%TO.N,/R2*%
X248920000Y-126300000D03*
%TO.P,BrookConnection1,15,4K*%
%TO.N,/L2*%
X248920000Y-127800000D03*
%TO.P,BrookConnection1,16,GND*%
%TO.N,GND*%
X248920000Y-129300000D03*
%TD*%
D10*
%TO.P,SW_L1,1,PIN1*%
%TO.N,/L1*%
X363358000Y-100952000D03*
%TO.P,SW_L1,2,PIN2*%
%TO.N,GND*%
X357008000Y-103492000D03*
%TD*%
%TO.P,SW_UP1,1,PIN1*%
%TO.N,/UP*%
X130427000Y-189071000D03*
%TO.P,SW_UP1,2,PIN2*%
%TO.N,GND*%
X124077000Y-191611000D03*
%TD*%
D12*
%TO.N,/UP*%
X226000000Y-122500000D03*
X240250000Y-108250000D03*
%TO.N,GND*%
X244250000Y-129250000D03*
%TO.N,/PS*%
X238500000Y-117500000D03*
X243000000Y-112750000D03*
%TO.N,/SEL*%
X241500000Y-117500000D03*
X244500000Y-114500000D03*
%TO.N,/R2*%
X317000000Y-129500000D03*
X310500000Y-136000000D03*
X264000000Y-130500000D03*
X269500000Y-136000000D03*
%TO.N,/CIR*%
X262500000Y-121750000D03*
X259500000Y-124750000D03*
%TO.N,/L1*%
X264000000Y-91750000D03*
X264000000Y-110000000D03*
%TO.N,/R1*%
X261250000Y-98500000D03*
X261250000Y-110000000D03*
%TO.N,/TRI*%
X259000000Y-104250000D03*
X259000000Y-110000000D03*
%TO.N,/LFT*%
X105000000Y-105250000D03*
X107500000Y-107750000D03*
%TD*%
D13*
%TO.N,/UP*%
X173179000Y-189071000D02*
X130427000Y-189071000D01*
X197750000Y-150750000D02*
X197750000Y-164500000D01*
X226000000Y-122500000D02*
X197750000Y-150750000D01*
X197750000Y-164500000D02*
X173179000Y-189071000D01*
X240300000Y-108300000D02*
X240250000Y-108250000D01*
X248920000Y-108300000D02*
X240300000Y-108300000D01*
%TO.N,GND*%
X244300000Y-129300000D02*
X244250000Y-129250000D01*
X248920000Y-129300000D02*
X244300000Y-129300000D01*
%TO.N,/PS*%
X238500000Y-190781000D02*
X252560000Y-204841000D01*
X238500000Y-117500000D02*
X238500000Y-190781000D01*
X243050000Y-112800000D02*
X243000000Y-112750000D01*
X248920000Y-112800000D02*
X243050000Y-112800000D01*
%TO.N,/SEL*%
X241500000Y-162596000D02*
X252560000Y-173656000D01*
X244700000Y-114300000D02*
X244500000Y-114500000D01*
X248920000Y-114300000D02*
X244700000Y-114300000D01*
X241500000Y-117500000D02*
X241500000Y-162596000D01*
%TO.N,/R2*%
X323724000Y-112526000D02*
X337135000Y-112526000D01*
X320500000Y-115750000D02*
X323724000Y-112526000D01*
X320500000Y-126000000D02*
X320500000Y-115750000D01*
X317000000Y-129500000D02*
X320500000Y-126000000D01*
X269500000Y-136000000D02*
X310500000Y-136000000D01*
X259800000Y-126300000D02*
X264000000Y-130500000D01*
X248920000Y-126300000D02*
X259800000Y-126300000D01*
%TO.N,/CIR*%
X274699000Y-109551000D02*
X308780000Y-109551000D01*
X262500000Y-121750000D02*
X274699000Y-109551000D01*
X259450000Y-124800000D02*
X259500000Y-124750000D01*
X248920000Y-124800000D02*
X259450000Y-124800000D01*
%TO.N,/X*%
X273454000Y-121546000D02*
X282262000Y-121546000D01*
X271700000Y-123300000D02*
X273454000Y-121546000D01*
X248920000Y-123300000D02*
X271700000Y-123300000D01*
%TO.N,/L2*%
X254120000Y-132750000D02*
X341500000Y-132750000D01*
X249170000Y-127800000D02*
X254120000Y-132750000D01*
X341500000Y-132750000D02*
X345688000Y-128562000D01*
X248920000Y-127800000D02*
X249170000Y-127800000D01*
X345688000Y-128562000D02*
X363358000Y-128562000D01*
%TO.N,/L1*%
X340406000Y-78000000D02*
X363358000Y-100952000D01*
X277750000Y-78000000D02*
X340406000Y-78000000D01*
X264000000Y-91750000D02*
X277750000Y-78000000D01*
X252200000Y-121800000D02*
X264000000Y-110000000D01*
X248920000Y-121800000D02*
X252200000Y-121800000D01*
%TO.N,/R1*%
X332710000Y-80491000D02*
X337135000Y-84916000D01*
X279259000Y-80491000D02*
X332710000Y-80491000D01*
X261250000Y-98500000D02*
X279259000Y-80491000D01*
X250950000Y-120300000D02*
X261250000Y-110000000D01*
X248920000Y-120300000D02*
X250950000Y-120300000D01*
%TO.N,/TRI*%
X259000000Y-104250000D02*
X281309000Y-81941000D01*
X281309000Y-81941000D02*
X308780000Y-81941000D01*
X250200000Y-118800000D02*
X259000000Y-110000000D01*
X248920000Y-118800000D02*
X250200000Y-118800000D01*
%TO.N,/SQU*%
X272533000Y-93937000D02*
X282262000Y-93937000D01*
X249170000Y-117300000D02*
X272533000Y-93937000D01*
X248920000Y-117300000D02*
X249170000Y-117300000D01*
%TO.N,/STA*%
X248920000Y-115800000D02*
X209320000Y-115800000D01*
X209320000Y-115800000D02*
X203200000Y-121920000D01*
%TO.N,/RT*%
X248920000Y-111300000D02*
X134088000Y-111300000D01*
X134088000Y-111300000D02*
X123468000Y-121920000D01*
%TO.N,/LFT*%
X76173000Y-105250000D02*
X68540000Y-112883000D01*
X105000000Y-105250000D02*
X76173000Y-105250000D01*
X109550000Y-109800000D02*
X107500000Y-107750000D01*
X248920000Y-109800000D02*
X109550000Y-109800000D01*
%TO.N,/DWN*%
X100253000Y-106800000D02*
X96896000Y-110157000D01*
X248920000Y-106800000D02*
X100253000Y-106800000D01*
%TD*%
M02*
