M48
; DRILL file {KiCad 7.0.5} date Fri Jul 28 19:17:10 2023
; FORMAT={-:-/ absolute / metric / decimal}
; #@! TF.CreationDate,2023-07-28T19:17:10-07:00
; #@! TF.GenerationSoftware,Kicad,Pcbnew,7.0.5
; #@! TF.FileFunction,MixedPlating,1,2
FMAT,2
METRIC
; #@! TA.AperFunction,Plated,PTH,ViaDrill
T1C0.300
; #@! TA.AperFunction,Plated,PTH,ComponentDrill
T2C1.500
; #@! TA.AperFunction,NonPlated,NPTH,ComponentDrill
T3C1.700
; #@! TA.AperFunction,NonPlated,NPTH,ComponentDrill
T4C2.200
; #@! TA.AperFunction,NonPlated,NPTH,ComponentDrill
T5C4.000
%
G90
G05
T1
X105.0Y-105.25
X107.5Y-107.75
X226.0Y-122.5
X238.5Y-117.5
X240.25Y-108.25
X241.5Y-117.5
X243.0Y-112.75
X244.25Y-129.25
X244.5Y-114.5
X259.0Y-104.25
X259.0Y-110.0
X259.5Y-124.75
X261.25Y-98.5
X261.25Y-110.0
X262.5Y-121.75
X264.0Y-91.75
X264.0Y-110.0
X264.0Y-130.5
X269.5Y-136.0
X310.5Y-136.0
X317.0Y-129.5
T2
X62.19Y-115.423
X68.54Y-112.883
X90.546Y-112.697
X96.896Y-110.157
X117.118Y-124.46
X123.468Y-121.92
X124.077Y-191.611
X130.427Y-189.071
X196.85Y-124.46
X203.2Y-121.92
X246.21Y-176.196
X246.21Y-207.381
X252.56Y-173.656
X252.56Y-204.841
X275.912Y-96.477
X275.912Y-124.086
X282.262Y-93.937
X282.262Y-121.546
X302.43Y-84.481
X302.43Y-112.091
X308.78Y-81.941
X308.78Y-109.551
X330.785Y-87.456
X330.785Y-115.066
X337.135Y-84.916
X337.135Y-112.526
X357.008Y-103.492
X357.008Y-131.102
X363.358Y-100.952
X363.358Y-128.562
T3
X60.92Y-117.963
X71.08Y-117.963
X89.276Y-115.237
X99.436Y-115.237
X115.848Y-127.0
X122.807Y-194.151
X126.008Y-127.0
X132.967Y-194.151
X195.58Y-127.0
X205.74Y-127.0
X244.94Y-178.736
X244.94Y-209.921
X255.1Y-178.736
X255.1Y-209.921
X274.642Y-99.017
X274.642Y-126.626
X284.802Y-99.017
X284.802Y-126.626
X301.16Y-87.021
X301.16Y-114.631
X311.32Y-87.021
X311.32Y-114.631
X329.515Y-89.996
X329.515Y-117.606
X339.675Y-89.996
X339.675Y-117.606
X355.738Y-106.032
X355.738Y-133.642
X365.898Y-106.032
X365.898Y-133.642
T4
X50.75Y-71.25
X50.75Y-223.5
X182.0Y-71.25
X182.0Y-159.25
X219.0Y-71.5
X219.0Y-159.25
X378.25Y-71.25
X378.25Y-223.5
T5
X66.0Y-117.963
X94.356Y-115.237
X120.928Y-127.0
X127.887Y-194.151
X200.66Y-127.0
X250.02Y-178.736
X250.02Y-209.921
X279.722Y-99.017
X279.722Y-126.626
X306.24Y-87.021
X306.24Y-114.631
X334.595Y-89.996
X334.595Y-117.606
X360.818Y-106.032
X360.818Y-133.642
T0
M30
