%TF.GenerationSoftware,KiCad,Pcbnew,7.0.5*%
%TF.CreationDate,2023-07-28T19:17:22-07:00*%
%TF.ProjectId,BrookHitbox,42726f6f-6b48-4697-9462-6f782e6b6963,rev?*%
%TF.SameCoordinates,Original*%
%TF.FileFunction,Soldermask,Bot*%
%TF.FilePolarity,Negative*%
%FSLAX46Y46*%
G04 Gerber Fmt 4.6, Leading zero omitted, Abs format (unit mm)*
G04 Created by KiCad (PCBNEW 7.0.5) date 2023-07-28 19:17:22*
%MOMM*%
%LPD*%
G01*
G04 APERTURE LIST*
%ADD10C,2.200000*%
%ADD11C,1.700000*%
%ADD12C,4.000000*%
%ADD13R,1.500000X1.000000*%
G04 APERTURE END LIST*
D10*
%TO.C,H1*%
X50750000Y-223500000D03*
%TD*%
D11*
%TO.C,SW_TRIANGLE1*%
X301160000Y-87021000D03*
D12*
X306240000Y-87021000D03*
D11*
X311320000Y-87021000D03*
D10*
X308780000Y-81941000D03*
X302430000Y-84481000D03*
%TD*%
D11*
%TO.C,SW_PSXBOX1*%
X244940000Y-209921000D03*
D12*
X250020000Y-209921000D03*
D11*
X255100000Y-209921000D03*
D10*
X252560000Y-204841000D03*
X246210000Y-207381000D03*
%TD*%
D11*
%TO.C,SW_SELECT1*%
X244940000Y-178736000D03*
D12*
X250020000Y-178736000D03*
D11*
X255100000Y-178736000D03*
D10*
X252560000Y-173656000D03*
X246210000Y-176196000D03*
%TD*%
D11*
%TO.C,SW_SQUARE1*%
X274642000Y-99017000D03*
D12*
X279722000Y-99017000D03*
D11*
X284802000Y-99017000D03*
D10*
X282262000Y-93937000D03*
X275912000Y-96477000D03*
%TD*%
%TO.C,H2*%
X50750000Y-71250000D03*
%TD*%
D11*
%TO.C,SW_R1*%
X329515000Y-89996000D03*
D12*
X334595000Y-89996000D03*
D11*
X339675000Y-89996000D03*
D10*
X337135000Y-84916000D03*
X330785000Y-87456000D03*
%TD*%
%TO.C,H8*%
X219000000Y-71500000D03*
%TD*%
D11*
%TO.C,SW_CIRCLE1*%
X301160000Y-114631000D03*
D12*
X306240000Y-114631000D03*
D11*
X311320000Y-114631000D03*
D10*
X308780000Y-109551000D03*
X302430000Y-112091000D03*
%TD*%
D11*
%TO.C,SW_DOWN1*%
X89276000Y-115237000D03*
D12*
X94356000Y-115237000D03*
D11*
X99436000Y-115237000D03*
D10*
X96896000Y-110157000D03*
X90546000Y-112697000D03*
%TD*%
%TO.C,H7*%
X219000000Y-159250000D03*
%TD*%
D11*
%TO.C,SW_L2*%
X355738000Y-133642000D03*
D12*
X360818000Y-133642000D03*
D11*
X365898000Y-133642000D03*
D10*
X363358000Y-128562000D03*
X357008000Y-131102000D03*
%TD*%
D11*
%TO.C,SW_RIGHT1*%
X115848000Y-127000000D03*
D12*
X120928000Y-127000000D03*
D11*
X126008000Y-127000000D03*
D10*
X123468000Y-121920000D03*
X117118000Y-124460000D03*
%TD*%
D11*
%TO.C,SW_LEFT1*%
X60920000Y-117963000D03*
D12*
X66000000Y-117963000D03*
D11*
X71080000Y-117963000D03*
D10*
X68540000Y-112883000D03*
X62190000Y-115423000D03*
%TD*%
D11*
%TO.C,SW_START1*%
X195580000Y-127000000D03*
D12*
X200660000Y-127000000D03*
D11*
X205740000Y-127000000D03*
D10*
X203200000Y-121920000D03*
X196850000Y-124460000D03*
%TD*%
%TO.C,H6*%
X182000000Y-71250000D03*
%TD*%
D11*
%TO.C,SW_R2*%
X329515000Y-117606000D03*
D12*
X334595000Y-117606000D03*
D11*
X339675000Y-117606000D03*
D10*
X337135000Y-112526000D03*
X330785000Y-115066000D03*
%TD*%
D11*
%TO.C,SW_X1*%
X274642000Y-126626000D03*
D12*
X279722000Y-126626000D03*
D11*
X284802000Y-126626000D03*
D10*
X282262000Y-121546000D03*
X275912000Y-124086000D03*
%TD*%
%TO.C,H4*%
X378250000Y-71250000D03*
%TD*%
D13*
%TO.C,BrookConnection1*%
X248920000Y-106800000D03*
X248920000Y-108300000D03*
X248920000Y-109800000D03*
X248920000Y-111300000D03*
X248920000Y-112800000D03*
X248920000Y-114300000D03*
X248920000Y-115800000D03*
X248920000Y-117300000D03*
X248920000Y-118800000D03*
X248920000Y-120300000D03*
X248920000Y-121800000D03*
X248920000Y-123300000D03*
X248920000Y-124800000D03*
X248920000Y-126300000D03*
X248920000Y-127800000D03*
X248920000Y-129300000D03*
%TD*%
D10*
%TO.C,H3*%
X378250000Y-223500000D03*
%TD*%
%TO.C,H5*%
X182000000Y-159250000D03*
%TD*%
D11*
%TO.C,SW_L1*%
X355738000Y-106032000D03*
D12*
X360818000Y-106032000D03*
D11*
X365898000Y-106032000D03*
D10*
X363358000Y-100952000D03*
X357008000Y-103492000D03*
%TD*%
D11*
%TO.C,SW_UP1*%
X122807000Y-194151000D03*
D12*
X127887000Y-194151000D03*
D11*
X132967000Y-194151000D03*
D10*
X130427000Y-189071000D03*
X124077000Y-191611000D03*
%TD*%
M02*
